<?xml version="1.0" standalone="no"?>
<!DOCTYPE svg PUBLIC "-//W3C//DTD SVG 20010904//EN"
 "http://www.w3.org/TR/2001/REC-SVG-20010904/DTD/svg10.dtd">
<svg version="1.0" xmlns="http://www.w3.org/2000/svg"
 width="260.000000pt" height="260.000000pt" viewBox="0 0 260.000000 260.000000"
 preserveAspectRatio="xMidYMid meet">
<metadata>
Created by potrace 1.14, written by Peter Selinger 2001-2017
</metadata>
<g transform="translate(0.000000,260.000000) scale(0.100000,-0.100000)"
fill="#000000" stroke="none">
<path d="M1207 1863 c-4 -3 -7 -105 -7 -225 l0 -218 28 -11 c37 -14 237 -8
254 9 22 22 -9 36 -90 40 -88 4 -102 14 -102 75 0 66 12 77 84 77 45 0 67 4
76 15 21 25 -2 38 -72 43 -35 2 -69 9 -75 14 -19 15 -16 103 3 122 11 12 35
16 88 16 55 0 77 4 87 16 10 13 10 17 -2 25 -16 10 -262 12 -272 2z"/>
<path d="M895 1390 c-10 -17 -7 -482 3 -492 5 -5 25 -8 43 -6 l34 3 5 120 c6
143 20 181 65 178 52 -4 60 -22 63 -156 2 -67 9 -128 15 -135 5 -7 24 -12 41
-10 l31 3 3 137 3 137 -38 42 -37 41 -68 -6 c-77 -8 -76 -10 -80 94 l-3 55
-37 3 c-20 2 -39 -2 -43 -8z"/>
<path d="M556 1315 c-33 -30 -40 -42 -44 -85 -4 -49 -3 -51 40 -95 30 -30 54
-45 71 -45 35 0 99 -67 91 -95 -13 -44 -44 -58 -116 -52 -66 6 -68 5 -68 -18
0 -30 41 -45 122 -45 58 0 61 1 108 49 63 64 68 89 33 154 -24 44 -33 52 -67
59 -21 5 -49 19 -62 33 -13 14 -28 25 -33 25 -20 0 -24 49 -7 75 22 33 79 35
113 4 21 -20 23 -21 29 -5 4 11 -1 28 -13 44 -18 24 -27 27 -89 29 -66 3 -71
1 -108 -32z"/>
<path d="M1346 1214 c-47 -46 -58 -74 -58 -149 0 -74 11 -103 57 -149 35 -35
38 -36 110 -36 75 0 75 0 118 43 38 37 46 52 56 109 16 84 4 125 -51 179 -40
38 -41 39 -118 39 -75 0 -78 -1 -114 -36z m181 -69 c29 -51 29 -99 1 -155 -24
-47 -51 -59 -103 -46 -47 12 -63 152 -25 214 19 30 24 33 62 30 38 -3 45 -7
65 -43z"/>
<path d="M1836 1235 c-28 -10 -45 -11 -62 -3 -12 6 -30 8 -39 5 -13 -6 -15
-36 -13 -254 l3 -248 30 -3 c48 -4 60 10 57 68 -1 28 3 60 9 71 9 18 17 19 68
13 57 -6 59 -5 98 30 33 29 43 47 53 94 28 132 -28 243 -122 242 -24 -1 -60
-7 -82 -15z m101 -71 c9 -15 19 -52 21 -84 4 -49 0 -63 -22 -99 -22 -34 -32
-42 -53 -39 -35 4 -64 46 -70 101 -7 56 0 86 28 120 28 36 72 37 96 1z"/>
</g>
</svg>
